<?xml version="1.0" standalone="no"?><!DOCTYPE svg PUBLIC "-//W3C//DTD SVG 1.1//EN" "http://www.w3.org/Graphics/SVG/1.1/DTD/svg11.dtd"><svg t="1718984900887" class="icon" viewBox="0 0 1024 1024" version="1.1" xmlns="http://www.w3.org/2000/svg" p-id="5375" width="128" height="128" xmlns:xlink="http://www.w3.org/1999/xlink"><path d="M806.784 571.52c13.568-13.610667 34.944-12.544 48.64 0 13.653333 12.544 12.672 35.84 0 48.597333l-0.597333 0.554667c-8.448 8.832-17.194667 17.408-25.898667 26.026667l-13.44 13.312-285.269333 285.269333a34.901333 34.901333 0 0 1-48.64 0l-0.512-0.554667a1231.786667 1231.786667 0 0 1-25.258667-25.173333l-12.629333-12.757333-274.517334-274.517334c-13.610667-13.568-12.586667-34.901333 0-48.597333 12.544-13.653333 35.84-12.714667 48.554667 0l0.554667 0.554667c8.618667 8.234667 16.981333 16.768 25.344 25.258666l12.544 12.672 250.112 250.112 2.56-2.517333 13.226666-13.013333 285.226667-285.226667zM811.434667 123.733333c45.525333 17.792 86.954667 46.08 117.077333 84.906667a256.128 256.128 0 0 1 54.912 156.245333c0.170667 19.242667-15.701333 33.536-34.346667 34.346667-18.645333 0.853333-34.218667-16.384-34.346666-34.346667a232.448 232.448 0 0 0-1.450667-24.021333 224.597333 224.597333 0 0 0-13.013333-47.488 218.453333 218.453333 0 0 0-20.608-36.394667c-0.426667-0.554667-0.768-1.109333-1.152-1.706666l-0.597334-0.896-1.493333-1.877334a217.6 217.6 0 0 0-22.229333-23.637333 259.328 259.328 0 0 0-12.032-10.410667 14.592 14.592 0 0 1-2.816-2.048l-4.053334-2.986666a241.194667 241.194667 0 0 0-39.552-22.442667 246.528 246.528 0 0 0-54.058666-14.805333 248.618667 248.618667 0 0 0-54.613334 0 246.741333 246.741333 0 0 0-53.845333 14.677333 242.218667 242.218667 0 0 0-45.482667 26.624 235.392 235.392 0 0 0-20.906666 18.901333l-36.437334 36.437334c-12.544 13.653333-35.84 12.714667-48.597333 0a28.501333 28.501333 0 0 1-1.536-1.578667l-12.245333-12.202667-37.12-37.12a242.432 242.432 0 0 0-18.474667-16.682666l-1.621333-1.194667a219.264 219.264 0 0 0-38.698667-22.357333 224.256 224.256 0 0 0-47.488-13.013334 224.597333 224.597333 0 0 0-49.28 0c-16.341333 2.56-32.298667 6.997333-47.658667 13.098667a220.245333 220.245333 0 0 0-39.381333 22.954667l-1.28 0.938666-0.938667 0.810667a223.232 223.232 0 0 0-32.341333 32.512l-1.578667 1.92-0.853333 1.28a242.602667 242.602667 0 0 0-25.984 44.8c-6.741333 16.896-11.562667 34.56-14.421333 52.608a259.242667 259.242667 0 0 0-1.621334 25.301333c-0.298667 19.285333-15.530667 33.536-34.389333 34.346667-18.346667 0.853333-34.602667-16.341333-34.346667-34.346667a280.704 280.704 0 0 1 65.194667-175.146666c63.445333-76.885333 170.965333-109.397333 266.453333-80.768 41.813333 12.586667 78.762667 35.754667 109.525334 66.56l24.32 24.32c12.928-12.885333 26.197333-25.472 40.661333-36.693334 73.984-57.173333 177.194667-73.557333 264.746667-39.381333zM187.477333 205.354667a23.637333 23.637333 0 0 1 2.432-1.877334l-2.432 1.877334z" p-id="5376" fill="#1296db"></path><path d="M875.690667 251.733333a23.893333 23.893333 0 0 1 1.962666 2.56l-1.962666-2.56z" p-id="5377" fill="#1296db"></path><path d="M991.658667 462.208c18.090667-0.213333 31.573333 14.933333 32.298666 32.298667 0.768 17.621333-15.402667 32.128-32.298666 32.341333l-355.328 3.498667c-10.666667 0.085333-22.954667-6.101333-27.861334-16.042667l-29.952-60.373333-70.272 187.562666c-4.608 12.373333-13.44 21.333333-26.88 23.125334a32.64 32.64 0 0 1-32.170666-15.445334l-76.544-118.613333H32.341333c-18.090667 0-31.530667-14.890667-32.298666-32.298667-0.768-17.408 15.402667-32.298667 32.298666-32.298666h1.28c18.901333-0.298667 37.802667-0.213333 56.746667-0.128 9.386667 0.085333 18.858667 0.128 28.288 0.128h269.824a35.413333 35.413333 0 0 1 30.250667 16.938666c5.76 8.704 11.392 17.493333 17.066666 26.325334 2.858667 4.565333 5.802667 9.088 8.746667 13.653333l24.917333 38.656 73.813334-196.949333c4.608-12.373333 13.397333-21.333333 26.837333-23.125334 11.904-1.621333 26.453333 3.925333 32.170667 15.402667l53.930666 108.629333 335.445334-3.285333z" p-id="5378" fill="#1296db"></path></svg>