<?xml version="1.0" standalone="no"?><!DOCTYPE svg PUBLIC "-//W3C//DTD SVG 1.1//EN" "http://www.w3.org/Graphics/SVG/1.1/DTD/svg11.dtd"><svg t="1721145285855" class="icon" viewBox="0 0 1024 1024" version="1.1" xmlns="http://www.w3.org/2000/svg" p-id="6942" xmlns:xlink="http://www.w3.org/1999/xlink" width="128" height="128"><path d="M1009.7 916.5L809.9 716.7c73-75 118.1-177.4 118.1-290 0-229.4-186.6-416-416-416-176 0-333.7 111.4-392.3 277.3-5.9 16.7 2.8 34.9 19.5 40.8 16.6 5.9 35-2.9 40.8-19.5C229.6 169 363.1 74.7 512 74.7c194.1 0 352 157.9 352 352s-157.9 352-352 352c-112.1 0-218.5-54.2-284.7-144.9-10.4-14.3-30.5-17.4-44.7-7-14.3 10.4-17.4 30.4-7 44.7C253.7 778.7 379.5 842.7 512 842.7c93.7 0 180.2-31.1 249.8-83.6l202.7 202.7c6.2 6.2 14.4 9.4 22.6 9.4s16.4-3.1 22.6-9.4c12.5-12.6 12.5-32.8 0-45.3z" p-id="6943" fill="#1296db"></path><path d="M220.4 530.1l48.5-71 43.3 69.8c5.4 8.7 14.7 14.3 24.9 15 10.3 0.9 20.2-3.5 26.8-11.4l40.9-48.9 79 148.3c5.6 10.5 16.5 17 28.2 17 0.9 0 1.9 0 2.9-0.1 12.8-1.1 23.7-9.9 27.6-22.1l81.2-253.3 57.8 85.6c9.9 14.6 29.8 18.5 44.4 8.6 14.6-9.9 18.5-29.8 8.6-44.4L639.8 283c-6.9-10.1-19-15.5-31-13.8-12.1 1.8-22.2 10.2-26 21.9L504.6 535l-65.7-123.4c-5-9.4-14.4-15.7-24.9-16.8-10.5-1.1-21 3.1-27.9 11.3l-42.9 51.4-45.8-73.9c-5.7-9.2-15.7-14.9-26.5-15.1-11.2 0.3-21 5-27.1 13.9L177 480H37.8c-17.7 0-32 14.3-32 32s14.3 32 32 32H194c10.5 0 20.4-5.2 26.4-13.9z" p-id="6944" fill="#1296db"></path></svg>