<?xml version="1.0" standalone="no"?><!DOCTYPE svg PUBLIC "-//W3C//DTD SVG 1.1//EN" "http://www.w3.org/Graphics/SVG/1.1/DTD/svg11.dtd"><svg t="1715307610297" class="icon" viewBox="0 0 1024 1024" version="1.1" xmlns="http://www.w3.org/2000/svg" p-id="28405" xmlns:xlink="http://www.w3.org/1999/xlink" width="128" height="128"><path d="M511.8 241.8l18.2-31.4c11.2-19.6 36.2-26.2 55.8-15 19.6 11.2 26.2 36.2 15 55.8l-175 303h126.6c41 0 64 48.2 46.2 81.6H227.6c-22.6 0-40.8-18.2-40.8-40.8 0-22.6 18.2-40.8 40.8-40.8h104l133.2-230.8-41.6-72.2c-11.2-19.6-4.6-44.4 15-55.8 19.6-11.2 44.4-4.6 55.8 15l17.8 31.4z m-157.4 436l-39.2 68c-11.2 19.6-36.2 26.2-55.8 15-19.6-11.2-26.2-36.2-15-55.8l29.2-50.4c32.8-10.2 59.6-2.4 80.8 23.2z m337.8-123.4h106.2c22.6 0 40.8 18.2 40.8 40.8 0 22.6-18.2 40.8-40.8 40.8h-59l39.8 69c11.2 19.6 4.6 44.4-15 55.8-19.6 11.2-44.4 4.6-55.8-15-67-116.2-117.4-203.2-150.8-261.2-34.2-59-9.8-118.2 14.4-138.2 26.8 46 66.8 115.4 120.2 208zM512 16C238 16 16 238 16 512s222 496 496 496 496-222 496-496S786 16 512 16z m432 496c0 237.4-192.2 432-432 432-237.4 0-432-192.2-432-432 0-237.4 192.2-432 432-432 237.4 0 432 192.2 432 432z" fill="#1296db" p-id="28406"></path></svg>