<?xml version="1.0" standalone="no"?><!DOCTYPE svg PUBLIC "-//W3C//DTD SVG 1.1//EN" "http://www.w3.org/Graphics/SVG/1.1/DTD/svg11.dtd"><svg t="1721145317679" class="icon" viewBox="0 0 1024 1024" version="1.1" xmlns="http://www.w3.org/2000/svg" p-id="8006" xmlns:xlink="http://www.w3.org/1999/xlink" width="128" height="128"><path d="M511.104 32c1.28 0 2.496 0 3.776 0C515.84 32.384 516.8 32.896 517.824 33.088c55.616 10.752 111.232 21.504 166.784 32.256 65.536 12.672 131.136 25.344 196.672 38.08 15.872 3.072 31.744 6.336 47.68 9.472 0.064 1.92 0.192 3.328 0.192 4.672 0 161.408 0 322.816 0 484.16 0 28.096-6.016 54.848-17.472 80.384-23.04 51.328-57.024 94.848-96.704 134.144-38.08 37.76-80.256 70.528-125.312 99.52-44.608 28.736-91.392 53.248-142.336 69.056-8.896 2.752-17.984 4.8-26.944 7.168-1.536 0-3.136 0-4.672 0-0.512-0.32-1.024-0.768-1.6-0.832-29.568-5.888-57.6-16.384-84.864-28.864-80.32-36.8-152.576-85.824-216.64-146.624-37.824-35.904-70.4-76.032-94.464-122.688-14.976-29.056-23.488-59.648-23.488-92.544C94.848 439.68 94.848 278.848 94.848 118.144c0-1.664 0.128-3.328 0.192-5.056 10.176-1.536 19.904-2.816 29.568-4.608 46.272-8.96 92.48-17.984 138.688-27.136 72.256-14.208 144.448-28.416 216.704-42.752C490.432 36.544 500.736 34.176 511.104 32zM512.64 470.208c0.128-1.984 0.448-4.032 0.448-6.08 0-118.4 0-236.8 0-355.264 0-0.768-0.128-1.536 0-2.304 0.64-3.776-1.6-4.8-4.608-4.544C504.896 102.336 501.376 102.976 497.856 103.616 441.216 113.792 384.512 123.968 327.872 134.144 279.68 142.72 231.424 151.488 183.168 159.936 179.392 160.64 178.56 162.112 178.56 165.696c0.064 99.712 0.064 199.36 0.064 299.008 0 1.6 0.256 3.264 0.384 5.12 2.56 0 4.608 0 6.656 0 107.136 0 214.336 0 321.472 0 1.856 0 3.776 0.128 5.632 0.256 0.064 1.984 0.128 4.032 0.128 6.08 0 142.144 0 284.288 0 426.432 0 1.984 0 3.968 0 6.208 1.472-0.256 2.496-0.256 3.328-0.576 16.768-5.376 33.792-10.112 50.24-16.384 58.304-22.336 111.552-53.696 160.64-92.032 36.672-28.672 68.928-61.632 92.608-102.144 16-27.264 25.984-56.192 25.856-88.256-0.256-44.8-0.064-89.6-0.064-134.528 0-1.6-0.128-3.328-0.256-5.312-2.048 0-3.584 0-5.12 0-107.456 0-214.912 0-322.432 0.064C515.968 469.632 514.304 470.016 512.64 470.208z" fill="#1296db" p-id="8007"></path></svg>