<?xml version="1.0" standalone="no"?><!DOCTYPE svg PUBLIC "-//W3C//DTD SVG 1.1//EN" "http://www.w3.org/Graphics/SVG/1.1/DTD/svg11.dtd"><svg t="1721145800388" class="icon" viewBox="0 0 1024 1024" version="1.1" xmlns="http://www.w3.org/2000/svg" p-id="1334" xmlns:xlink="http://www.w3.org/1999/xlink" width="128" height="128"><path d="M998.4 823.58016C998.4 864.99072 964.83072 898.56 923.42016 898.56H100.57984C59.16928 898.56 25.6 864.99072 25.6 823.58016V200.41984C25.6 159.00928 59.16928 125.44 100.57984 125.44h822.84288C964.83072 125.44 998.4 159.00928 998.4 200.41984v623.16032z" fill="#FFFFFF" p-id="1335"></path><path d="M922.61376 148.88704c27.56352 0 50.18624 32.44032 50.18624 60.00384v624.82688c0 27.56352-22.41536 41.80224-49.97888 41.80224H98.05056C70.4896 875.52 51.2 861.28128 51.2 833.71776V208.89088C51.2 181.32992 70.4896 148.48 98.05056 148.48H924.16m-1.33888-48.64H98.05056C42.83904 99.84 0 153.67936 0 208.89088v624.82688C0 888.93184 42.83904 924.16 98.05056 924.16h824.77056C978.0352 924.16 1024 888.93184 1024 833.71776V208.89088C1024 153.67936 978.0352 99.84 922.82112 99.84z" fill="#707070" p-id="1336" data-spm-anchor-id="a313x.icontype_icons.0.i2.397b3a81J1Aw4z" class="selected"></path><path d="M902.97856 585.23136h-43.90144a18849.51296 18849.51296 0 0 0-42.49856-76.43904c-7.3728-13.14304-24.11264-11.97824-31.70304 0-17.99168 28.74112-30.10304 47.872-48.09216 76.43904a0.88064 0.88064 0 0 1 0.50432-0.24064 1.31328 1.31328 0 0 1-0.50432 0.24064c-0.26368 0.13056-0.37376 0.26368-0.63744 0.43776 0.13056-0.17664 0.39424-0.3072 0.63744-0.43776h-69.52704c-6.12096 0-13.09696 3.66336-15.90784 9.63072-25.12128 54.71744-26.87744 58.38336-52.08576 113.12384 0.63744 0.11008 1.03168 0.11008 1.3824 0.11008-0.4608 0-0.96512-0.11008-1.3824-0.11008 0 0.11008 0 0.11008-0.11008 0.11008 0 0 0-0.11008 0.11008-0.11008-7.2192-45.15328-5.11232-32.60416-12.352-77.75488-13.12-82.03264-26.06592-164.11136-39.16288-246.05696a43326.464 43326.464 0 0 1-18.6496-117.4016c-3.02848-19.50464-31.17568-17.83808-35.3664 0a57543.30112 57543.30112 0 0 1-39.40352 168.78592l-34.88512 149.52192c0.24064-0.24064 0.48384-0.41728 0.72448-0.63744-0.24064 0.13056-0.48384 0.41728-0.72448 0.63744h-54.74048c0.39424 0.26368 0.65792 0.54784 0.87808 0.65792a2.9952 2.9952 0 0 0-0.87808-0.65792l-22.88384-65.64352c-5.50656-15.75424-24.59392-19.6352-33.54624-4.69504a25302.40512 25302.40512 0 0 1-41.99424 70.25152l0.74496-0.41728-0.74496 0.41728-0.74496 0.37376c0.24064-0.13056 0.37376-0.26368 0.74496-0.37376h-145.792c-23.65184 0-23.65184 39.00928 0 39.00928h137.344c12.24192 0 26.94144 2.72128 34.66496-10.18112l27.29472-45.76768c9.30304 26.7008 5.26592 14.98624 14.54592 41.48736 3.57632 10.28864 12.13184 17.18016 24.48384 13.14304 24.15616 0.13056 46.66624 0.43776 70.77888 0.52736 9.30304 2.6112 19.59168-3.90656 21.91872-13.77792 13.09696-56.32 26.19648-112.64 39.38304-168.8064 12.74624-54.60992 4.43136-18.82368 17.15712-73.47712l7.2192 45.13024c13.09696 82.07872 26.06592 164.11136 39.1424 246.05696 6.25408 39.11936 12.5056 78.2592 18.62656 117.4016 2.58816 16.36608 26.94144 19.24096 33.56928 4.69504a71473.19296 71473.19296 0 0 1 71.98464-156.56448c0.11008-0.39424 0.11008-0.1536 0 0H735.488c6.64832 0 14.45888 1.03168 20.3392-2.6112 5.1328-3.13856 8.6016-10.13504 11.76064-15.22688a2031.31648 2031.31648 0 0 0 13.82144-21.96224c10.18112-15.99488 7.5904-13.888 17.77152-30.05696 0-0.11008 0.11008-0.11008 0.11008-0.24064 0 0.13056-0.11008 0.13056-0.11008 0.24064-0.59136 1.42592 0.11008 1.97376 0.98816 1.82016 13.20704 23.936 13.55776 24.57344 27.53536 49.69472 1.55648 3.00544 3.31264 5.85728 4.9152 8.84224 6.07744 11.03616 17.37728 9.63072 27.51232 9.63072h42.82624c23.82592 0.24064 23.82592-38.76864 0.02048-38.76864z m-637.75232 0.65792c-0.13056 0.1536-0.24064 0.1536-0.37376 0.1536 0.13056 0.11008 0.24064 0 0.37376-0.1536z m2.08384-1.18528c0.11008-0.11008 0.24064-0.11008 0.37376-0.24064-0.13312 0-0.13312 0.13056-0.37376 0.24064z m0.48128-0.24064s0-0.13312 0 0c0-0.13312 0 0 0 0zM364.50304 585.09824c-0.11008-0.11008-0.24064-0.24064-0.48384-0.41728a0.9472 0.9472 0 0 0 0.48384 0.41728z m-0.9856-0.768c-0.11008-0.11008-0.11008-0.11008-0.24064-0.11008 0.13056 0 0.24064 0 0.24064 0.11008z m2.34752 1.82272c0.11008 0.1536 0.24064 0.28416 0.37376 0.28416-0.15616 0-0.26368-0.13056-0.37376-0.28416z m54.69696-1.6896c0.26368-0.24064 0.39424-0.39424 0.50432-0.39424-0.11008-0.00256-0.2432 0.15104-0.50432 0.39424z m177.29536 123.54304c-0.41728 0-0.6144-0.13056-1.00864-0.13056 0.37376 0 0.59392 0 1.00864 0.13056z m-1.11872-0.28416h-0.50432 0.50432z m4.89472 0.78848h0.24064-0.24064z m75.88864-83.59168c0.13056-0.13056 0.24064-0.13056 0.37376-0.26368-0.1536 0.13312-0.26368 0.26368-0.37376 0.26368z m1.71264-1.02912c0.13056-0.1536 0.26368-0.1536 0.39424-0.28416-0.1536 0.13056-0.26368 0.28416-0.39424 0.28416z m56.18944-37.73696s0.11008 0 0.11008-0.11008c-0.11008 0-0.11008 0.11008-0.11008 0.11008z m2.47808-1.55904c0.11008 0 0.11008-0.13056 0.24064-0.13056-0.1536 0-0.1536 0.13056-0.24064 0.13056z" fill="#707070" p-id="1337" data-spm-anchor-id="a313x.icontype_icons.0.i3.397b3a81J1Aw4z" class="selected"></path></svg>