<?xml version="1.0" standalone="no"?><!DOCTYPE svg PUBLIC "-//W3C//DTD SVG 1.1//EN" "http://www.w3.org/Graphics/SVG/1.1/DTD/svg11.dtd"><svg t="1715307238189" class="icon" viewBox="0 0 1024 1024" version="1.1" xmlns="http://www.w3.org/2000/svg" p-id="13542" xmlns:xlink="http://www.w3.org/1999/xlink" width="128" height="128"><path d="M65 488.442l355.126-4.001L420.126 153.556 65 205.561 65 488.442zM94.8 231.315l295.526-43.274 0 266.934L94.8 458.308 94.8 231.315zM462.251 143.094l0 340.532L959 477.602 959 65 462.251 143.094zM929.2 448.166l-437.149 5.296 0-284.89L929.2 99.849 929.2 448.166zM65 818.454l355.126 52.005L420.126 539.574 65 535.572 65 818.454zM94.8 565.707l295.526 3.332 0 266.935L94.8 792.699 94.8 565.707zM462.251 880.921 959 959 959 546.412l-496.749-6.038L462.251 880.921zM492.051 570.538 929.2 575.85l0 348.302-437.149-68.709L492.051 570.538z" fill="#707070" p-id="13543"></path></svg>